<?xml version="1.0" encoding="UTF-8"?>
<svg id="_03" data-name="03" xmlns="http://www.w3.org/2000/svg" viewBox="180 -220 980 980">
  <defs>
    <style>
      .cls-1 {
        fill: #f9ab2d;
      }

      .cls-1, .cls-2 {
        stroke-width: 0px;
      }

      .cls-2 {
        fill: #fff;
      }
    </style>
  </defs>
  <path class="cls-1" d="M180,446.3v12.27c0,50.23,37.92,91.75,86.63,97.49,5.75,48.71,47.26,86.63,97.49,86.63h98.2v-196.4H180ZM437.77,470.85v107.58l-19.71-39.42h0s-34.08-68.16-34.08-68.16h53.79ZM205.57,470.85h150.96l30.69,61.37h-109.03c-36.43,0-66.77-26.59-72.63-61.37ZM291.52,556.78h107.98l30.69,61.37h-66.06c-36.43,0-66.74-26.59-72.61-61.37Z"/>
  <g>
    <path class="cls-1" d="M807.73,629.78h3.52c2.93,0,4.22,1.69,4.22,3.81v.21c0,2.1-1.29,3.81-4.22,3.81h-2.58v4.81h-.93v-12.63ZM808.66,630.62v6.13h2.71c2.26,0,3.17-1.38,3.17-3.07s-.91-3.07-3.17-3.07h-2.71Z"/>
    <path class="cls-1" d="M818.24,629.83h6.91v.84h-5.98v4.91h5.57v.86h-5.57v5.12h6.19v.84h-7.12v-12.58Z"/>
    <path class="cls-1" d="M828.5,629.78h3.76c2.76,0,4.1,1.53,4.1,3.72v.21c0,1.88-.98,3.26-2.98,3.62l4.12,5.08h-1.14l-4.01-4.98h-2.91v4.98h-.93v-12.63ZM829.43,630.62v5.96h2.95c2.14,0,3.05-1.31,3.05-2.98s-.91-2.98-3.05-2.98h-2.95Z"/>
    <path class="cls-1" d="M838.96,638.79h.93c0,1.74,1.17,3.05,3.88,3.05,2.52,0,3.79-1.15,3.79-2.81,0-1.36-1-2.41-3.07-2.6l-1.5-.12c-2.08-.19-3.39-1.38-3.39-3.26,0-1.98,1.43-3.55,4.15-3.55s4.26,1.67,4.26,3.79h-.93c0-1.55-1-2.93-3.33-2.93s-3.22,1.24-3.22,2.69.91,2.24,2.57,2.4l1.5.12c2.52.22,3.89,1.62,3.89,3.46,0,2.12-1.72,3.67-4.72,3.67-3.21,0-4.81-1.65-4.81-3.91Z"/>
    <path class="cls-1" d="M850.78,636.22v-.28c0-3.15,2.29-6.44,6.39-6.44s6.36,3.29,6.36,6.44v.28c0,3.03-2.14,6.48-6.36,6.48s-6.39-3.45-6.39-6.48ZM862.59,636.1c0-3.03-2.03-5.74-5.41-5.74s-5.45,2.71-5.45,5.74,1.98,5.74,5.45,5.74,5.41-2.83,5.41-5.74Z"/>
    <path class="cls-1" d="M866.58,629.83h1.62l7.38,11.74h.21v-11.74h.91v12.58h-1.64l-7.38-11.73h-.21v11.73h-.9v-12.58Z"/>
    <path class="cls-1" d="M884.01,629.83h1.86l4.89,12.58h-.96l-1.64-4.24h-6.38l-1.59,4.24h-.93l4.74-12.58ZM887.82,637.32l-2.57-6.65h-.65l-2.48,6.65h5.7Z"/>
    <path class="cls-1" d="M893.33,629.83h.93v11.74h5.74v.84h-6.67v-12.58Z"/>
  </g>
  <g>
    <path class="cls-2" d="M486.87,446.71h30.08c18.95,0,29.05,8.15,29.05,23.08v1.61c0,8.04-3.1,13.32-8.38,16.65,7.35,3.1,11.83,8.84,11.83,18.49v1.61c0,14.93-9.99,23.54-29.05,23.54h-33.53v-84.96ZM502.83,459.8v22.73h15.61c7.81,0,11.37-4.48,11.37-11.37s-3.56-11.37-11.37-11.37h-15.61ZM502.83,495.17v23.42h18.71c7.69,0,11.71-4.36,11.71-11.83s-4.02-11.6-11.71-11.6h-18.71Z"/>
    <path class="cls-2" d="M558.86,501.02v-2.18c0-16.53,10.79-32.26,31.34-32.26s30.66,15.04,30.66,31.46v5.74h-46.84c1.03,9.76,6.31,16.3,16.88,16.3,7.69,0,12.86-3.56,14.24-8.15h14.7c-2.76,12.86-13.55,21.36-28.93,21.36-21.47,0-32.03-16.3-32.03-32.26ZM574.25,494.02h31.34c-1.26-8.96-6.43-14.24-15.39-14.24s-14.35,5.28-15.96,14.24Z"/>
    <path class="cls-2" d="M634.87,507.68v-27.21h-9.87v-11.71h9.87l.12-17.57h14.93l-.11,17.57h19.29v11.71h-19.29v28.24c0,6.09,3.44,9.53,9.53,9.53h9.76v13.66h-8.96c-17.22,0-25.26-5.97-25.26-24.23Z"/>
    <path class="cls-2" d="M676.21,512.62c0-13.66,10.68-19.98,27.33-19.98h12.74v-.57c0-7.12-3.56-10.68-10.79-10.68-5.74,0-15.84.34-22.27.8v-13.55c5.28-.46,13.2-.8,19.4-.8,19.17,0,28.93,7.23,28.93,24.57v38.69h-12.63v-11.94c-2.76,8.84-9.53,13.55-20.09,13.55-13.66,0-22.62-7.35-22.62-20.09ZM695.5,437.3h19.06l12.17,23.54h-13.32l-7.81-15.96h-1.26l-7.81,15.96h-13.09l12.06-23.54ZM716.28,508.03v-5.86h-12.97c-7.23,0-11.37,3.9-11.37,9.64s4.02,9.53,11.37,9.53c6.54,0,12.52-3.1,12.97-13.32Z"/>
    <path class="cls-2" d="M741.94,468.76h12.63v15.39c2.64-11.48,9.76-17.34,21.36-17.34h.69c14.81,0,22.62,9.64,22.62,28.59v35.71h-15.96v-37.09c0-7.69-4.71-12.86-12.29-12.86s-13.09,5.28-13.09,13.32v36.63h-15.96v-62.35Z"/>
    <path class="cls-2" d="M812.62,480.7h-8.73v-11.94h24.69v62.35h-15.96v-50.4ZM809.29,452.57c0-5.05,2.87-8.61,9.18-8.61s9.07,3.56,9.07,8.61-2.87,8.73-9.07,8.73-9.18-3.67-9.18-8.73Z"/>
    <path class="cls-2" d="M840.86,512.62c0-13.66,10.68-19.98,27.33-19.98h12.74v-.57c0-7.12-3.56-10.68-10.79-10.68-5.74,0-15.84.34-22.27.8v-13.55c5.28-.46,13.2-.8,19.4-.8,19.17,0,28.93,7.23,28.93,24.57v38.69h-12.63v-11.94c-2.76,8.84-9.53,13.55-20.09,13.55-13.66,0-22.62-7.35-22.62-20.09ZM880.93,508.03v-5.86h-12.97c-7.23,0-11.37,3.9-11.37,9.64s4.02,9.53,11.37,9.53c6.54,0,12.51-3.1,12.97-13.32Z"/>
  </g>
  <g>
    <path class="cls-2" d="M486.87,556.7h16.88l21.36,70.27h4.02l19.86-70.27h16.3l-24.8,83.82h-26.87l-26.75-83.82Z"/>
    <path class="cls-2" d="M577.24,590.12h-8.73v-11.94h24.69v62.35h-15.96v-50.4ZM573.91,561.99c0-5.05,2.87-8.61,9.18-8.61s9.07,3.56,9.07,8.61-2.87,8.73-9.07,8.73-9.18-3.67-9.18-8.73Z"/>
    <path class="cls-2" d="M601.65,610.44v-2.18c0-16.53,10.79-32.26,31.34-32.26s30.66,15.04,30.66,31.46v5.74h-46.84c1.03,9.76,6.31,16.3,16.88,16.3,7.69,0,12.86-3.56,14.24-8.15h14.7c-2.76,12.86-13.55,21.36-28.93,21.36-21.47,0-32.03-16.3-32.03-32.26ZM617.03,603.43h31.34c-1.26-8.96-6.43-14.24-15.39-14.24s-14.35,5.28-15.96,14.24Z"/>
    <path class="cls-2" d="M678.8,590.12h-8.73v-11.94h24.69v62.35h-15.96v-50.4ZM675.47,561.99c0-5.05,2.87-8.61,9.18-8.61s9.07,3.56,9.07,8.61-2.87,8.73-9.07,8.73-9.18-3.67-9.18-8.73Z"/>
    <path class="cls-2" d="M706.42,578.17h12.63v20.32c1.61-13.89,9.18-21.13,22.27-21.13h2.3v13.89h-4.36c-10.79,0-16.88,5.97-16.88,16.76v32.49h-15.96v-62.35Z"/>
    <path class="cls-2" d="M747.87,622.03c0-13.66,10.68-19.98,27.33-19.98h12.74v-.57c0-7.12-3.56-10.68-10.79-10.68-5.74,0-15.84.34-22.27.8v-13.55c5.28-.46,13.2-.8,19.4-.8,19.17,0,28.93,7.23,28.93,24.57v38.69h-12.63v-11.94c-2.76,8.84-9.53,13.55-20.09,13.55-13.66,0-22.62-7.35-22.62-20.09ZM787.94,617.44v-5.86h-12.97c-7.23,0-11.37,3.9-11.37,9.64s4.02,9.53,11.37,9.53c6.54,0,12.52-3.1,12.97-13.32Z"/>
  </g>
</svg>